<svg xmlns="http://www.w3.org/2000/svg" xmlns:xlink="http://www.w3.org/1999/xlink" viewBox="0 0 110.65 26.39"><defs><style>.cls-1{fill:url(#linear-gradient);}</style><linearGradient id="linear-gradient" y1="13.2" x2="110.65" y2="13.2" gradientUnits="userSpaceOnUse"><stop offset="0" stop-color="#f57e24"/><stop offset="0.08" stop-color="#f4732d"/><stop offset="0.3" stop-color="#f15842"/><stop offset="0.52" stop-color="#ef4550"/><stop offset="0.75" stop-color="#ee3a59"/><stop offset="1" stop-color="#ee365c"/></linearGradient></defs><g id="Layer_2" data-name="Layer 2"><g id="Layer_1-2" data-name="Layer 1"><path class="cls-1" d="M18.27,18a10.59,10.59,0,0,1-7.63,3C3.18,20.94,0,15.81,0,10.59S3.38,0,10.64,0A10.32,10.32,0,0,1,18,3.07L15.49,5.51a6.91,6.91,0,0,0-4.85-1.9c-4.84,0-6.94,3.62-6.91,7s1.95,6.79,6.91,6.79a7.39,7.39,0,0,0,5-2Z"/><path class="cls-1" d="M21.77,6.34,22,8a4.18,4.18,0,0,1,4-2,5.33,5.33,0,0,1,3.64,1.35l-1.57,3a3.48,3.48,0,0,0-2.53-.92A3.26,3.26,0,0,0,22,13v7.46h-3.5V6.34Z"/><path class="cls-1" d="M34.14,6.34v7.4c0,2.15,1.17,3.79,3.41,3.79a3.73,3.73,0,0,0,3.62-4V6.34h3.47V20.51H41.51l-.23-1.92a6.31,6.31,0,0,1-4.79,2.12c-3.38,0-5.85-2.55-5.85-6.94V6.34Z"/><path class="cls-1" d="M56.43,20.48V12.91c0-1.87-1-3.56-2.9-3.56s-3,1.69-3,3.56v7.57H47V6.31h3.24L50.52,8a4.11,4.11,0,0,1,3.73-1.95,4.25,4.25,0,0,1,4.19,2.64,5.11,5.11,0,0,1,4.73-2.58c4,0,6,2.47,6,6.71v7.63h-3.5V12.85c0-1.86-.78-3.44-2.67-3.44a3.22,3.22,0,0,0-3.07,3.5v7.57Z"/><path class="cls-1" d="M81.42,20.48V12.91c0-1.87-1-3.56-2.9-3.56s-3,1.69-3,3.56v7.57H72V6.31h3.24L75.51,8a4.11,4.11,0,0,1,3.73-1.95,4.25,4.25,0,0,1,4.19,2.64,5.1,5.1,0,0,1,4.73-2.58c4,0,6,2.47,6,6.71v7.63h-3.5V12.85c0-1.86-.78-3.44-2.67-3.44a3.21,3.21,0,0,0-3.07,3.5v7.57Z"/><path class="cls-1" d="M110.65,6.34,102,26.39H98.17l2.64-6.14L95.16,6.34h4.07l2.16,6.11,1.34,4,1.47-3.9,2.58-6.2Z"/></g></g></svg>